<?xml version="1.0" encoding="utf-8"?>
<!-- Generator: Adobe Illustrator 17.0.0, SVG Export Plug-In . SVG Version: 6.00 Build 0)  -->
<!DOCTYPE svg PUBLIC "-//W3C//DTD SVG 1.1//EN" "http://www.w3.org/Graphics/SVG/1.1/DTD/svg11.dtd">
<svg version="1.1" id="Layer_1" xmlns="http://www.w3.org/2000/svg" xmlns:xlink="http://www.w3.org/1999/xlink" x="0px" y="0px"
	 width="197px" height="74.2px" viewBox="0 0 197 74.2" style="enable-background:new 0 0 197 74.2;" xml:space="preserve">
<style type="text/css">
	.st0{fill:#004777;}
	.st1{fill:#FFFFFF;}
</style>
<g>
	<path class="st0" d="M98.6,0C51,0,12.3,12.5,12.3,28c0,15.5,38.6,28,86.3,28c47.6,0,86.3-12.5,86.3-28C184.9,12.5,146.2,0,98.6,0"
		/>
	<path class="st1" d="M116.2,17.9l-5.5,20.3h4.7l1-4h6.5l1.1,4h4.7l-5.5-20.3H116.2z M117.5,30.6l2.3-8.6l2.3,8.6H117.5z"/>
	<polygon class="st1" points="139.1,38.2 144.4,17.9 139.2,17.9 136,32.1 132.9,17.9 127.7,17.9 132.9,38.2 	"/>
	<polygon class="st1" points="103.5,29.7 97,17.9 92.3,17.9 92.3,38.2 97,38.2 97,26.6 103.5,38.2 108.1,38.2 108.1,17.9 
		103.5,17.9 	"/>
	<polygon class="st1" points="157.2,38.2 157.2,31.7 163.3,17.9 158.1,17.9 154.6,26.8 151,17.9 145.9,17.9 152,31.7 152,38.2 	"/>
	<path class="st1" d="M75,38.2c2.5,0,4.6-0.1,6.5-2.2c1.8-2,2.5-4.9,2.6-7.8h0v0c0,0,0-0.1,0-0.1c0,0,0-0.1,0-0.1h0
		c0-2.9-0.7-5.8-2.6-7.9c-1.9-2.2-3.9-2.2-6.5-2.2h-6.5v20.3H75z M73.4,21.8h1.2c1.2,0,2.5,0.1,3.4,1.5c0.7,1.3,1.1,2.9,1.1,4.7
		c0,1.8-0.4,3.4-1.1,4.7c-0.9,1.4-2.2,1.5-3.4,1.5l-1.1,0L73.4,21.8z"/>
	<polygon class="st1" points="58.5,17.9 53.9,17.9 53.9,38.2 65.9,38.2 65.9,34.3 58.5,34.3 	"/>
	<path class="st1" d="M42.6,17.5c-5.4,0-8.7,4.2-8.7,10.5c0,0,0,0,0,0c0,6,3.3,10.4,8.7,10.4h0c5.3,0,8.7-4.4,8.7-10.4
		C51.3,21.8,48,17.5,42.6,17.5 M42.6,34.5c-2.8,0-3.8-4.2-3.8-6.4c0-2.2,0.6-6.7,3.8-6.7c3.2,0,3.8,4.5,3.8,6.7
		C46.4,30.3,45.4,34.5,42.6,34.5"/>
	<path class="st0" d="M0,71.4l0.8-1c0.8,0.7,1.5,1,2.5,1c0.9,0,1.4-0.4,1.4-1v0c0-0.6-0.3-0.9-1.8-1.2c-1.7-0.4-2.7-0.9-2.7-2.4v0
		c0-1.4,1.1-2.3,2.7-2.3c1.2,0,2.1,0.4,2.9,1l-0.8,1.1C4.5,66,3.8,65.7,3,65.7c-0.8,0-1.3,0.4-1.3,0.9v0c0,0.6,0.4,0.9,1.9,1.3
		c1.7,0.4,2.6,1,2.6,2.3v0c0,1.5-1.2,2.4-2.8,2.4C2.1,72.6,1,72.2,0,71.4"/>
	<path class="st0" d="M11,64.5h1.3l3.5,8h-1.5l-0.8-1.9H9.7l-0.8,1.9H7.5L11,64.5z M13,69.4l-1.4-3.2l-1.4,3.2H13z"/>
	<polygon class="st0" points="17.7,64.5 19,64.5 23.3,70.1 23.3,64.5 24.6,64.5 24.6,72.5 23.5,72.5 19.1,66.8 19.1,72.5 17.7,72.5 
			"/>
	<polygon class="st0" points="31.9,64.5 37.9,64.5 37.9,65.8 33.3,65.8 33.3,68 37.4,68 37.4,69.3 33.3,69.3 33.3,72.5 31.9,72.5 	
		"/>
	<path class="st0" d="M40.3,64.5h3.6c1,0,1.8,0.3,2.3,0.8c0.4,0.4,0.7,1,0.7,1.7v0c0,1.3-0.8,2.1-1.9,2.4l2.2,3h-1.7l-2-2.8h-1.8
		v2.8h-1.4V64.5z M43.8,68.5c1,0,1.6-0.5,1.6-1.3v0c0-0.9-0.6-1.3-1.7-1.3h-2v2.7H43.8z"/>
	<path class="st0" d="M51.9,64.5h1.3l3.5,8h-1.5l-0.8-1.9h-3.8l-0.8,1.9h-1.4L51.9,64.5z M53.9,69.4l-1.4-3.2l-1.4,3.2H53.9z"/>
	<polygon class="st0" points="58.6,64.5 59.9,64.5 64.2,70.1 64.2,64.5 65.6,64.5 65.6,72.5 64.4,72.5 60,66.8 60,72.5 58.6,72.5 	
		"/>
	<path class="st0" d="M67.9,68.6L67.9,68.6c0-2.3,1.7-4.2,4.1-4.2c1.5,0,2.4,0.5,3.1,1.2l-0.9,1c-0.6-0.6-1.3-1-2.2-1
		c-1.5,0-2.6,1.3-2.6,2.8v0c0,1.6,1.1,2.8,2.6,2.8c1,0,1.6-0.4,2.3-1l0.9,0.9c-0.8,0.9-1.7,1.4-3.2,1.4
		C69.7,72.7,67.9,70.9,67.9,68.6"/>
	<rect x="77.7" y="64.5" class="st0" width="1.4" height="8"/>
	<path class="st0" d="M81.6,71.4l0.8-1c0.8,0.7,1.5,1,2.5,1c0.9,0,1.4-0.4,1.4-1v0c0-0.6-0.3-0.9-1.8-1.2c-1.7-0.4-2.7-0.9-2.7-2.4
		v0c0-1.4,1.1-2.3,2.7-2.3c1.2,0,2.1,0.4,2.9,1l-0.8,1.1c-0.7-0.5-1.4-0.8-2.2-0.8c-0.8,0-1.3,0.4-1.3,0.9v0c0,0.6,0.4,0.9,1.9,1.3
		c1.7,0.4,2.6,1,2.6,2.3v0c0,1.5-1.2,2.4-2.9,2.4C83.7,72.6,82.6,72.2,81.6,71.4"/>
	<path class="st0" d="M89.7,68.6L89.7,68.6c0-2.3,1.7-4.2,4.1-4.2c1.5,0,2.4,0.5,3.1,1.2l-0.9,1c-0.6-0.6-1.3-1-2.2-1
		c-1.5,0-2.6,1.3-2.6,2.8v0c0,1.6,1.1,2.8,2.6,2.8c1,0,1.6-0.4,2.3-1l0.9,0.9c-0.8,0.9-1.7,1.4-3.2,1.4
		C91.5,72.7,89.7,70.9,89.7,68.6"/>
	<path class="st0" d="M98.8,68.6L98.8,68.6c0-2.3,1.7-4.2,4.2-4.2c2.5,0,4.2,1.9,4.2,4.1v0c0,2.2-1.7,4.1-4.2,4.1
		C100.5,72.7,98.8,70.8,98.8,68.6 M105.7,68.6L105.7,68.6c0-1.6-1.1-2.9-2.7-2.9c-1.6,0-2.7,1.3-2.7,2.8v0c0,1.5,1.1,2.8,2.7,2.8
		C104.6,71.4,105.7,70.1,105.7,68.6"/>
	<path class="st0" d="M116.8,68.5L116.8,68.5c0-2.3,1.7-4.2,4.1-4.2c1.5,0,2.4,0.5,3.1,1.2l-0.9,1c-0.6-0.6-1.3-1-2.2-1
		c-1.5,0-2.6,1.3-2.6,2.8v0c0,1.6,1.1,2.8,2.6,2.8c1,0,1.6-0.4,2.3-1l0.9,0.9c-0.8,0.9-1.7,1.4-3.2,1.4
		C118.5,72.6,116.8,70.8,116.8,68.5"/>
	<path class="st0" d="M128.9,64.5h1.3l3.5,8h-1.5l-0.8-1.9h-3.8l-0.8,1.9h-1.4L128.9,64.5z M130.9,69.3l-1.4-3.2l-1.4,3.2H130.9z"/>
	<polygon class="st0" points="135.5,64.5 136.9,64.5 136.9,71.2 141.1,71.2 141.1,72.5 135.5,72.5 	"/>
	<rect x="143.6" y="64.5" class="st0" width="1.4" height="8"/>
	<polygon class="st0" points="148,64.5 154,64.5 154,65.8 149.4,65.8 149.4,68 153.5,68 153.5,69.3 149.4,69.3 149.4,72.5 148,72.5 
			"/>
	<path class="st0" d="M155.6,68.5L155.6,68.5c0-2.3,1.7-4.2,4.2-4.2c2.4,0,4.2,1.9,4.2,4.1v0c0,2.2-1.7,4.1-4.2,4.1
		C157.3,72.6,155.6,70.8,155.6,68.5 M162.5,68.5L162.5,68.5c0-1.6-1.1-2.9-2.7-2.9s-2.7,1.3-2.7,2.8v0c0,1.5,1.1,2.8,2.7,2.8
		C161.4,71.3,162.5,70.1,162.5,68.5"/>
	<path class="st0" d="M166.2,64.5h3.6c1,0,1.8,0.3,2.3,0.8c0.4,0.4,0.7,1,0.7,1.7v0c0,1.3-0.8,2.1-1.9,2.4l2.2,3h-1.7l-2-2.8h-1.8
		v2.8h-1.4V64.5z M169.6,68.5c1,0,1.6-0.5,1.6-1.3v0c0-0.9-0.6-1.3-1.7-1.3h-2v2.7H169.6z"/>
	<polygon class="st0" points="175.3,64.5 176.6,64.5 180.9,70 180.9,64.5 182.3,64.5 182.3,72.5 181.1,72.5 176.7,66.8 176.7,72.5 
		175.3,72.5 	"/>
	<rect x="185.3" y="64.5" class="st0" width="1.4" height="8"/>
	<path class="st0" d="M192.2,64.5h1.3l3.5,8h-1.5l-0.8-1.9h-3.8l-0.8,1.9h-1.4L192.2,64.5z M194.2,69.3l-1.4-3.2l-1.4,3.2H194.2z"/>
	<path class="st0" d="M108.5,73.6c0.7-0.1,1-0.5,1-1.1h-0.6v-1.6h1.5v1.3c0,1.3-0.6,1.8-1.8,1.9L108.5,73.6z"/>
</g>
</svg>
