<?xml version="1.0" encoding="utf-8"?>
<!-- Generator: Adobe Illustrator 17.0.0, SVG Export Plug-In . SVG Version: 6.00 Build 0)  -->
<!DOCTYPE svg PUBLIC "-//W3C//DTD SVG 1.1//EN" "http://www.w3.org/Graphics/SVG/1.1/DTD/svg11.dtd">
<svg version="1.1" id="Layer_1" xmlns="http://www.w3.org/2000/svg" xmlns:xlink="http://www.w3.org/1999/xlink" x="0px" y="0px"
	 width="22px" height="22px" viewBox="0 0 22 22" style="enable-background:new 0 0 22 22;" xml:space="preserve">
<style type="text/css">
	.st0{fill:#173963;}
</style>
<g>
	<path class="st0" d="M10.9,0c-6.1,0-11,4.9-11,11c0,6.1,4.9,11,11,11s11-4.9,11-11S17,0,10.9,0z M10.9,20.7c-5.3,0-9.7-4.3-9.7-9.7
		s4.3-9.7,9.7-9.7s9.7,4.3,9.7,9.7S16.2,20.7,10.9,20.7z"/>
	<path class="st0" d="M16,7.5l-6.5,6.5l-3.3-3.3c-0.3-0.3-0.9-0.3-1.2,0c-0.3,0.3-0.3,0.9,0,1.2l3.9,3.9C9,16,9.3,16.1,9.5,16.1
		c0.2,0,0.4-0.1,0.6-0.3l7.1-7.1c0.3-0.3,0.3-0.9,0-1.2C16.9,7.2,16.4,7.2,16,7.5z"/>
</g>
</svg>
